VIC WA NT Beginner-Regular.ufo
<glyph name="quotedbl" format="2">
  <advance width="290"/>
  <unicode hex="0022"/>
  <outline>
    <contour>
      <point x="145" y="500" type="curve" smooth="yes"/>
      <point x="157" y="500"/>
      <point x="171" y="508"/>
      <point x="174" y="524" type="curve" smooth="yes"/>
      <point x="191" y="620" type="line" smooth="yes"/>
      <point x="195" y="640"/>
      <point x="182" y="650"/>
      <point x="169" y="650" type="curve" smooth="yes"/>
      <point x="157" y="650"/>
      <point x="143" y="641"/>
      <point x="140" y="624" type="curve" smooth="yes"/>
      <point x="123" y="528" type="line" smooth="yes"/>
      <point x="120" y="510"/>
      <point x="132" y="500"/>
    </contour>
    <contour>
      <point x="254" y="500" type="curve" smooth="yes"/>
      <point x="266" y="500"/>
      <point x="280" y="507"/>
      <point x="282" y="521" type="curve" smooth="yes"/>
      <point x="299" y="620" type="line" smooth="yes"/>
      <point x="302" y="640"/>
      <point x="290" y="650"/>
      <point x="276" y="650" type="curve" smooth="yes"/>
      <point x="264" y="650"/>
      <point x="252" y="642"/>
      <point x="249" y="628" type="curve" smooth="yes"/>
      <point x="231" y="528" type="line" smooth="yes"/>
      <point x="228" y="509"/>
      <point x="240" y="500"/>
    </contour>
  </outline>
</glyph>
<glyph name="comma" format="2">
  <advance width="210"/>
  <unicode hex="002C"/>
  <outline>
    <contour>
      <point x="81" y="-102" type="curve" smooth="yes"/>
      <point x="95" y="-102"/>
      <point x="105" y="-93"/>
      <point x="107" y="-78" type="curve" smooth="yes"/>
      <point x="119" y="21" type="line" smooth="yes"/>
      <point x="121" y="39"/>
      <point x="109" y="50"/>
      <point x="94" y="50.0" type="curve" smooth="yes"/>
      <point x="82" y="50"/>
      <point x="70" y="45"/>
      <point x="68" y="28" type="curve" smooth="yes"/>
      <point x="57" y="-75" type="line" smooth="yes"/>
      <point x="55" y="-92"/>
      <point x="64" y="-102"/>
    </contour>
  </outline>
</glyph>
<glyph name="slash" format="2">
  <advance width="335"/>
  <unicode hex="002F"/>
  <outline>
    <contour>
      <point x="58" y="0" type="curve" smooth="yes"/>
      <point x="69" y="0"/>
      <point x="80" y="6"/>
      <point x="86" y="20" type="curve" smooth="yes"/>
      <point x="343" y="616" type="line" smooth="yes"/>
      <point x="352" y="637"/>
      <point x="337" y="650"/>
      <point x="322" y="650" type="curve" smooth="yes"/>
      <point x="311" y="650"/>
      <point x="300" y="644"/>
      <point x="293" y="627" type="curve" smooth="yes"/>
      <point x="36" y="31" type="line" smooth="yes"/>
      <point x="28" y="12"/>
      <point x="42" y="0"/>
    </contour>
  </outline>
</glyph>
<glyph name="zero" format="2">
  <advance width="481"/>
  <unicode hex="0030"/>
  <outline>
    <contour>
      <point x="205" y="-3" type="curve" smooth="yes"/>
      <point x="347" y="-3"/>
      <point x="455" y="149"/>
      <point x="455" y="352" type="curve" smooth="yes"/>
      <point x="455" y="487"/>
      <point x="398" y="569"/>
      <point x="306" y="569" type="curve" smooth="yes"/>
      <point x="164" y="568"/>
      <point x="56" y="416"/>
      <point x="56" y="213" type="curve" smooth="yes"/>
      <point x="56" y="78"/>
      <point x="113" y="-3"/>
    </contour>
    <contour>
      <point x="204" y="47" type="curve" smooth="yes"/>
      <point x="143" y="47"/>
      <point x="106" y="108"/>
      <point x="106" y="208" type="curve" smooth="yes"/>
      <point x="106" y="386"/>
      <point x="192" y="519"/>
      <point x="307" y="519" type="curve" smooth="yes"/>
      <point x="368" y="519"/>
      <point x="405" y="457"/>
      <point x="405" y="357" type="curve" smooth="yes"/>
      <point x="405" y="179"/>
      <point x="319" y="47"/>
    </contour>
  </outline>
</glyph>
<glyph name="six" format="2">
  <advance width="406"/>
  <unicode hex="0036"/>
  <outline>
    <contour>
      <point x="149" y="0" type="curve" smooth="yes"/>
      <point x="263" y="0"/>
      <point x="367" y="121"/>
      <point x="367" y="257" type="curve" smooth="yes"/>
      <point x="367" y="321"/>
      <point x="329" y="354"/>
      <point x="270" y="354" type="curve" smooth="yes"/>
      <point x="222" y="354"/>
      <point x="86" y="319"/>
      <point x="86" y="185" type="curve"/>
      <point x="91" y="146" type="line"/>
      <point x="110" y="286"/>
      <point x="232" y="308"/>
      <point x="255" y="308" type="curve" smooth="yes"/>
      <point x="296" y="308"/>
      <point x="317" y="289"/>
      <point x="317" y="251" type="curve" smooth="yes"/>
      <point x="317" y="145"/>
      <point x="240" y="46"/>
      <point x="158" y="46" type="curve" smooth="yes"/>
      <point x="118" y="46"/>
      <point x="90" y="87"/>
      <point x="90" y="147" type="curve" smooth="yes"/>
      <point x="90" y="377"/>
      <point x="250" y="468"/>
      <point x="341" y="524" type="curve" smooth="yes"/>
      <point x="352" y="531"/>
      <point x="357" y="540"/>
      <point x="357" y="548" type="curve" smooth="yes"/>
      <point x="356" y="559"/>
      <point x="348" y="568"/>
      <point x="335" y="568" type="curve" smooth="yes"/>
      <point x="329" y="568"/>
      <point x="322" y="567"/>
      <point x="314" y="562" type="curve" smooth="yes"/>
      <point x="209" y="502"/>
      <point x="41" y="388"/>
      <point x="41" y="125" type="curve" smooth="yes"/>
      <point x="41" y="49"/>
      <point x="86" y="0"/>
    </contour>
  </outline>
</glyph>
<glyph name="equal" format="2">
  <advance width="426"/>
  <unicode hex="003D"/>
  <outline>
    <contour>
      <point x="96" y="129" type="curve" smooth="yes"/>
      <point x="323" y="129" type="line" smooth="yes"/>
      <point x="341" y="129"/>
      <point x="350" y="141"/>
      <point x="350" y="152" type="curve" smooth="yes"/>
      <point x="350" y="163"/>
      <point x="341" y="174"/>
      <point x="323" y="174" type="curve" smooth="yes"/>
      <point x="96" y="174" type="line" smooth="yes"/>
      <point x="78" y="174"/>
      <point x="69" y="162"/>
      <point x="69" y="151" type="curve" smooth="yes"/>
      <point x="69" y="140"/>
      <point x="78" y="129"/>
    </contour>
    <contour>
      <point x="133" y="280" type="curve" smooth="yes"/>
      <point x="360" y="280" type="line" smooth="yes"/>
      <point x="378" y="280"/>
      <point x="387" y="292"/>
      <point x="387" y="303" type="curve" smooth="yes"/>
      <point x="387" y="314"/>
      <point x="378" y="325"/>
      <point x="360" y="325" type="curve" smooth="yes"/>
      <point x="133" y="325" type="line" smooth="yes"/>
      <point x="115" y="325"/>
      <point x="106" y="313"/>
      <point x="106" y="302" type="curve" smooth="yes"/>
      <point x="106" y="291"/>
      <point x="115" y="280"/>
    </contour>
  </outline>
</glyph>
<glyph name="question" format="2">
  <advance width="464"/>
  <unicode hex="003F"/>
  <outline>
    <contour>
      <point x="158" y="-1" type="curve" smooth="yes"/>
      <point x="181" y="-1"/>
      <point x="198" y="17"/>
      <point x="198" y="40" type="curve" smooth="yes"/>
      <point x="198" y="62"/>
      <point x="181" y="79"/>
      <point x="158" y="79" type="curve" smooth="yes"/>
      <point x="135" y="79"/>
      <point x="118" y="62"/>
      <point x="118" y="40" type="curve" smooth="yes"/>
      <point x="118" y="17"/>
      <point x="135" y="-1"/>
    </contour>
    <contour>
      <point x="182" y="175.0" type="curve" smooth="yes"/>
      <point x="192" y="175"/>
      <point x="206" y="180"/>
      <point x="210" y="202" type="curve" smooth="yes"/>
      <point x="223" y="273" type="line"/>
      <point x="362" y="282"/>
      <point x="448" y="371"/>
      <point x="448" y="505" type="curve" smooth="yes"/>
      <point x="448" y="595"/>
      <point x="390" y="650"/>
      <point x="296" y="650" type="curve" smooth="yes"/>
      <point x="186" y="650"/>
      <point x="124" y="590"/>
      <point x="107" y="495" type="curve" smooth="yes"/>
      <point x="103" y="472"/>
      <point x="110" y="457"/>
      <point x="127" y="457" type="curve" smooth="yes"/>
      <point x="142" y="457"/>
      <point x="153" y="468"/>
      <point x="156" y="485" type="curve" smooth="yes"/>
      <point x="166" y="542"/>
      <point x="204" y="604"/>
      <point x="289" y="604" type="curve" smooth="yes"/>
      <point x="356" y="604"/>
      <point x="398" y="563"/>
      <point x="398" y="497" type="curve" smooth="yes"/>
      <point x="398" y="389"/>
      <point x="323" y="322"/>
      <point x="202" y="322" type="curve" smooth="yes"/>
      <point x="191" y="322"/>
      <point x="179" y="314"/>
      <point x="177" y="303" type="curve" smooth="yes"/>
      <point x="159" y="202" type="line" smooth="yes"/>
      <point x="157" y="188"/>
      <point x="167" y="175"/>
    </contour>
  </outline>
</glyph>
<glyph name="H" format="2">
  <advance width="517"/>
  <unicode hex="0048"/>
  <outline>
    <contour>
      <point x="58" y="0" type="curve" smooth="yes"/>
      <point x="80" y="0"/>
      <point x="84" y="15"/>
      <point x="86" y="25" type="curve" smooth="yes"/>
      <point x="190" y="619" type="line" smooth="yes"/>
      <point x="193" y="637"/>
      <point x="187" y="650"/>
      <point x="170" y="650" type="curve" smooth="yes"/>
      <point x="151" y="650"/>
      <point x="143" y="639"/>
      <point x="140" y="623" type="curve" smooth="yes"/>
      <point x="35" y="27" type="line" smooth="yes"/>
      <point x="32" y="12"/>
      <point x="40" y="0"/>
    </contour>
    <contour>
      <point x="126" y="304" type="line"/>
      <point x="428" y="304" type="line"/>
      <point x="436" y="350" type="line"/>
      <point x="134" y="350" type="line"/>
    </contour>
    <contour>
      <point x="394" y="0" type="curve" smooth="yes"/>
      <point x="413" y="0"/>
      <point x="419" y="13"/>
      <point x="421" y="22" type="curve" smooth="yes"/>
      <point x="526" y="621" type="line" smooth="yes"/>
      <point x="529" y="638"/>
      <point x="523" y="650"/>
      <point x="503" y="650" type="curve" smooth="yes"/>
      <point x="485" y="650"/>
      <point x="478" y="638"/>
      <point x="476" y="628" type="curve" smooth="yes"/>
      <point x="371" y="27" type="line" smooth="yes"/>
      <point x="369" y="15"/>
      <point x="371" y="0"/>
    </contour>
  </outline>
</glyph>
<glyph name="I" format="2">
  <advance width="276"/>
  <unicode hex="0049"/>
  <outline>
    <contour>
      <point x="82" y="24" type="line"/>
      <point x="133" y="24" type="line"/>
      <point x="239" y="629" type="line"/>
      <point x="188" y="630" type="line"/>
    </contour>
    <contour>
      <point x="61" y="0" type="curve" smooth="yes"/>
      <point x="154" y="0" type="line" smooth="yes"/>
      <point x="174.0" y="0.0"/>
      <point x="180" y="11"/>
      <point x="180" y="23" type="curve" smooth="yes"/>
      <point x="180" y="35"/>
      <point x="174.0" y="46.0"/>
      <point x="154" y="46" type="curve" smooth="yes"/>
      <point x="61" y="46" type="line" smooth="yes"/>
      <point x="41" y="46"/>
      <point x="35" y="35"/>
      <point x="35" y="23" type="curve" smooth="yes"/>
      <point x="35" y="11"/>
      <point x="41" y="0"/>
    </contour>
    <contour>
      <point x="169" y="604" type="curve" smooth="yes"/>
      <point x="258" y="604" type="line" smooth="yes"/>
      <point x="278" y="604"/>
      <point x="284" y="616"/>
      <point x="284" y="628" type="curve" smooth="yes"/>
      <point x="284" y="640"/>
      <point x="278" y="650"/>
      <point x="258" y="650" type="curve" smooth="yes"/>
      <point x="169" y="650" type="line" smooth="yes"/>
      <point x="149.0" y="650.0"/>
      <point x="143" y="640"/>
      <point x="143" y="628" type="curve" smooth="yes"/>
      <point x="143" y="616"/>
      <point x="149.0" y="604.0"/>
    </contour>
  </outline>
</glyph>
<glyph name="Z" format="2">
  <advance width="466"/>
  <unicode hex="005A"/>
  <outline>
    <contour>
      <point x="31" y="0" type="curve" smooth="yes"/>
      <point x="364" y="0" type="line" smooth="yes"/>
      <point x="384" y="0"/>
      <point x="390" y="13"/>
      <point x="390" y="25" type="curve" smooth="yes"/>
      <point x="390" y="37"/>
      <point x="384" y="46"/>
      <point x="364" y="46" type="curve" smooth="yes"/>
      <point x="51" y="46" type="line"/>
      <point x="60" y="26" type="line"/>
      <point x="479" y="608" type="line" smooth="yes"/>
      <point x="484" y="615"/>
      <point x="487" y="624"/>
      <point x="487" y="630" type="curve" smooth="yes"/>
      <point x="487.0" y="643.0"/>
      <point x="480.0" y="650.0"/>
      <point x="462" y="650" type="curve" smooth="yes"/>
      <point x="137" y="650" type="line" smooth="yes"/>
      <point x="117" y="650"/>
      <point x="111" y="637"/>
      <point x="111" y="625" type="curve" smooth="yes"/>
      <point x="111" y="613"/>
      <point x="117" y="604"/>
      <point x="137" y="604" type="curve" smooth="yes"/>
      <point x="441" y="604" type="line"/>
      <point x="432" y="624" type="line"/>
      <point x="11" y="39" type="line" smooth="yes"/>
      <point x="6" y="32"/>
      <point x="5" y="26"/>
      <point x="5" y="21" type="curve" smooth="yes"/>
      <point x="5" y="11"/>
      <point x="13" y="0"/>
    </contour>
  </outline>
</glyph>
<glyph name="backslash" format="2">
  <advance width="335"/>
  <unicode hex="005C"/>
  <outline>
    <contour>
      <point x="252" y="0" type="curve" smooth="yes"/>
      <point x="267" y="0"/>
      <point x="276" y="13"/>
      <point x="273" y="31" type="curve" smooth="yes"/>
      <point x="159" y="627" type="line" smooth="yes"/>
      <point x="156" y="644"/>
      <point x="141" y="650"/>
      <point x="130" y="650" type="curve" smooth="yes"/>
      <point x="115" y="650"/>
      <point x="105" y="637"/>
      <point x="109" y="616" type="curve" smooth="yes"/>
      <point x="223" y="20" type="line" smooth="yes"/>
      <point x="226" y="5"/>
      <point x="241" y="0"/>
    </contour>
  </outline>
</glyph>
<glyph name="bracketright" format="2">
  <advance width="324"/>
  <unicode hex="005D"/>
  <outline>
    <contour>
      <point x="9" y="-300" type="curve" smooth="yes"/>
      <point x="144" y="-300" type="line"/>
      <point x="166" y="-300"/>
      <point x="173" y="-289"/>
      <point x="176" y="-273" type="curve" smooth="yes"/>
      <point x="334" y="623" type="line" smooth="yes"/>
      <point x="337" y="638"/>
      <point x="329" y="650"/>
      <point x="309" y="650" type="curve" smooth="yes"/>
      <point x="168" y="650" type="line" smooth="yes"/>
      <point x="150" y="650"/>
      <point x="141" y="638"/>
      <point x="141" y="627" type="curve" smooth="yes"/>
      <point x="141" y="616"/>
      <point x="150" y="605"/>
      <point x="168" y="605" type="curve" smooth="yes"/>
      <point x="280" y="605" type="line"/>
      <point x="128" y="-255" type="line"/>
      <point x="9" y="-255" type="line" smooth="yes"/>
      <point x="-8" y="-255"/>
      <point x="-18" y="-266"/>
      <point x="-18" y="-277" type="curve" smooth="yes"/>
      <point x="-18" y="-289"/>
      <point x="-10" y="-300"/>
    </contour>
  </outline>
</glyph>
<glyph name="c" format="2">
  <advance width="323"/>
  <unicode hex="0063"/>
  <outline>
    <contour>
      <point x="112" y="-4" type="curve" smooth="yes"/>
      <point x="169" y="-4"/>
      <point x="230" y="48"/>
      <point x="272" y="131" type="curve" smooth="yes"/>
      <point x="276" y="140"/>
      <point x="271" y="152"/>
      <point x="260" y="158" type="curve" smooth="yes"/>
      <point x="247" y="165"/>
      <point x="233" y="164"/>
      <point x="228" y="154" type="curve" smooth="yes"/>
      <point x="195" y="87"/>
      <point x="152" y="42"/>
      <point x="116" y="42" type="curve" smooth="yes"/>
      <point x="89" y="42"/>
      <point x="73" y="69"/>
      <point x="74" y="105" type="curve" smooth="yes"/>
      <point x="77" y="219"/>
      <point x="129" y="308"/>
      <point x="196" y="308" type="curve" smooth="yes"/>
      <point x="219" y="308"/>
      <point x="250" y="304"/>
      <point x="269" y="297" type="curve" smooth="yes"/>
      <point x="286" y="290"/>
      <point x="300" y="291"/>
      <point x="306" y="306" type="curve" smooth="yes"/>
      <point x="313" y="321"/>
      <point x="307" y="335"/>
      <point x="290" y="341" type="curve" smooth="yes"/>
      <point x="267" y="350"/>
      <point x="229" y="354"/>
      <point x="196" y="354" type="curve" smooth="yes"/>
      <point x="97" y="354"/>
      <point x="23" y="243"/>
      <point x="23" y="95" type="curve" smooth="yes"/>
      <point x="23" y="34"/>
      <point x="57" y="-4"/>
    </contour>
  </outline>
</glyph>
<glyph name="d" format="2">
  <advance width="366"/>
  <unicode hex="0064"/>
  <outline>
    <contour>
      <point x="109" y="-4" type="curve" smooth="yes"/>
      <point x="162" y="-4"/>
      <point x="221" y="49"/>
      <point x="261" y="158" type="curve"/>
      <point x="273" y="270" type="line"/>
      <point x="220" y="129"/>
      <point x="163" y="42"/>
      <point x="117" y="42" type="curve" smooth="yes"/>
      <point x="84" y="42"/>
      <point x="66" y="82"/>
      <point x="77" y="147" type="curve" smooth="yes"/>
      <point x="94" y="244"/>
      <point x="164" y="304"/>
      <point x="260" y="304" type="curve" smooth="yes"/>
      <point x="301" y="304" type="line"/>
      <point x="309" y="350" type="line"/>
      <point x="257" y="350" type="line" smooth="yes"/>
      <point x="137" y="350"/>
      <point x="49" y="272"/>
      <point x="26" y="147" type="curve" smooth="yes"/>
      <point x="9" y="54"/>
      <point x="44" y="-4"/>
    </contour>
    <contour>
      <point x="255" y="0" type="curve" smooth="yes"/>
      <point x="266" y="0"/>
      <point x="276" y="6"/>
      <point x="279" y="21" type="curve" smooth="yes"/>
      <point x="386" y="623" type="line" smooth="yes"/>
      <point x="389" y="639"/>
      <point x="377" y="649"/>
      <point x="363" y="650" type="curve" smooth="yes"/>
      <point x="352" y="651"/>
      <point x="339" y="646"/>
      <point x="336" y="631" type="curve" smooth="yes"/>
      <point x="230" y="29" type="line" smooth="yes"/>
      <point x="227" y="11"/>
      <point x="241" y="0"/>
    </contour>
  </outline>
</glyph>
<glyph name="f" format="2">
  <advance width="236"/>
  <unicode hex="0066"/>
  <outline>
    <contour>
      <point x="29" y="-300" type="curve" smooth="yes"/>
      <point x="46" y="-301"/>
      <point x="53" y="-286"/>
      <point x="55" y="-274" type="curve" smooth="yes"/>
      <point x="185" y="522" type="line" smooth="yes"/>
      <point x="195" y="581"/>
      <point x="220" y="600"/>
      <point x="253" y="600" type="curve" smooth="yes"/>
      <point x="264" y="600"/>
      <point x="283" y="594"/>
      <point x="295" y="586" type="curve" smooth="yes"/>
      <point x="301" y="582"/>
      <point x="318" y="580"/>
      <point x="328" y="598" type="curve" smooth="yes"/>
      <point x="337" y="615"/>
      <point x="326" y="626"/>
      <point x="318" y="631" type="curve" smooth="yes"/>
      <point x="302" y="642"/>
      <point x="273" y="650"/>
      <point x="254" y="650" type="curve" smooth="yes"/>
      <point x="204" y="650"/>
      <point x="151" y="622"/>
      <point x="137" y="534" type="curve" smooth="yes"/>
      <point x="5" y="-270" type="line" smooth="yes"/>
      <point x="3" y="-282"/>
      <point x="11" y="-298"/>
    </contour>
    <contour>
      <point x="46" y="305" type="curve" smooth="yes"/>
      <point x="221" y="305" type="line" smooth="yes"/>
      <point x="241" y="305"/>
      <point x="245" y="316"/>
      <point x="245" y="328" type="curve" smooth="yes"/>
      <point x="245" y="340"/>
      <point x="238" y="350"/>
      <point x="218" y="350" type="curve" smooth="yes"/>
      <point x="43" y="350" type="line" smooth="yes"/>
      <point x="23" y="350"/>
      <point x="18" y="340"/>
      <point x="18" y="328" type="curve" smooth="yes"/>
      <point x="18" y="316"/>
      <point x="26" y="305"/>
    </contour>
  </outline>
</glyph>
<glyph name="k" format="2">
  <advance width="385"/>
  <unicode hex="006B"/>
  <outline>
    <contour>
      <point x="45" y="0" type="curve" smooth="yes"/>
      <point x="61" y="0"/>
      <point x="73" y="7"/>
      <point x="76" y="26" type="curve" smooth="yes"/>
      <point x="181" y="621" type="line" smooth="yes"/>
      <point x="185" y="642"/>
      <point x="173" y="650"/>
      <point x="157" y="650" type="curve" smooth="yes"/>
      <point x="142" y="650"/>
      <point x="133" y="639"/>
      <point x="130" y="622" type="curve" smooth="yes"/>
      <point x="25" y="26" type="line" smooth="yes"/>
      <point x="22" y="10"/>
      <point x="32" y="0"/>
    </contour>
    <contour>
      <point x="85" y="78" type="line"/>
      <point x="155" y="264"/>
      <point x="229" y="308"/>
      <point x="270" y="308" type="curve" smooth="yes"/>
      <point x="283" y="308"/>
      <point x="285" y="299"/>
      <point x="285" y="292" type="curve" smooth="yes"/>
      <point x="286" y="263"/>
      <point x="253" y="231"/>
      <point x="189" y="192" type="curve" smooth="yes"/>
      <point x="176" y="184"/>
      <point x="171" y="175"/>
      <point x="171" y="166" type="curve" smooth="yes"/>
      <point x="171" y="158"/>
      <point x="177" y="146"/>
      <point x="189" y="129" type="curve" smooth="yes"/>
      <point x="267" y="18" type="line" smooth="yes"/>
      <point x="274" y="8"/>
      <point x="284" y="-1"/>
      <point x="297" y="-1" type="curve" smooth="yes"/>
      <point x="308.96116135138186" y="-1.0"/>
      <point x="319.0" y="9.801960972814433"/>
      <point x="319" y="22" type="curve" smooth="yes"/>
      <point x="319" y="28"/>
      <point x="317" y="34"/>
      <point x="312" y="41" type="curve" smooth="yes"/>
      <point x="228" y="160" type="line"/>
      <point x="299" y="202"/>
      <point x="335" y="248"/>
      <point x="335" y="297" type="curve" smooth="yes"/>
      <point x="335" y="346"/>
      <point x="309" y="354"/>
      <point x="284" y="354" type="curve" smooth="yes"/>
      <point x="211" y="354"/>
      <point x="132" y="290"/>
      <point x="100" y="203" type="curve"/>
    </contour>
  </outline>
</glyph>
<glyph name="w" format="2">
  <advance width="675"/>
  <unicode hex="0077"/>
  <outline>
    <contour>
      <point x="76" y="-4" type="curve" smooth="yes"/>
      <point x="152" y="-4"/>
      <point x="237" y="108"/>
      <point x="298" y="216" type="curve"/>
      <point x="292" y="216" type="line"/>
      <point x="270" y="102" type="line" smooth="yes"/>
      <point x="260" y="52"/>
      <point x="264" y="-4"/>
      <point x="318" y="-4" type="curve" smooth="yes"/>
      <point x="426" y="-4"/>
      <point x="564" y="244"/>
      <point x="587" y="288" type="curve" smooth="yes"/>
      <point x="591" y="296" type="line"/>
      <point x="647" y="284" type="line" smooth="yes"/>
      <point x="670" y="279"/>
      <point x="689.0" y="287.0"/>
      <point x="689" y="309" type="curve" smooth="yes"/>
      <point x="689" y="321"/>
      <point x="683.0" y="331.0"/>
      <point x="665" y="334" type="curve" smooth="yes"/>
      <point x="610" y="345"/>
      <point x="584" y="350"/>
      <point x="580" y="350" type="curve" smooth="yes"/>
      <point x="562" y="350"/>
      <point x="556" y="337"/>
      <point x="544" y="315" type="curve" smooth="yes"/>
      <point x="498" y="226"/>
      <point x="383" y="42"/>
      <point x="332" y="42" type="curve" smooth="yes"/>
      <point x="317" y="42"/>
      <point x="313" y="62"/>
      <point x="321" y="102" type="curve" smooth="yes"/>
      <point x="360" y="320" type="line" smooth="yes"/>
      <point x="364" y="340"/>
      <point x="352" y="350"/>
      <point x="339" y="350" type="curve"/>
      <point x="321" y="350"/>
      <point x="314" y="337"/>
      <point x="302" y="315" type="curve" smooth="yes"/>
      <point x="256" y="226"/>
      <point x="141" y="42"/>
      <point x="90" y="42" type="curve" smooth="yes"/>
      <point x="75" y="42"/>
      <point x="71" y="62"/>
      <point x="79" y="102" type="curve" smooth="yes"/>
      <point x="118" y="320" type="line" smooth="yes"/>
      <point x="122" y="340"/>
      <point x="110" y="350"/>
      <point x="97" y="350" type="curve" smooth="yes"/>
      <point x="85" y="350"/>
      <point x="70" y="341"/>
      <point x="67" y="323" type="curve" smooth="yes"/>
      <point x="28" y="102" type="line" smooth="yes"/>
      <point x="18" y="52"/>
      <point x="22" y="-4"/>
    </contour>
  </outline>
</glyph>
<glyph name="braceleft" format="2">
  <advance width="379"/>
  <unicode hex="007B"/>
  <outline>
    <contour>
      <point x="224" y="-294" type="curve" smooth="yes"/>
      <point x="240" y="-306"/>
      <point x="258" y="-308"/>
      <point x="268" y="-298" type="curve" smooth="yes"/>
      <point x="279" y="-289"/>
      <point x="273" y="-268"/>
      <point x="258" y="-258" type="curve" smooth="yes"/>
      <point x="218" y="-231"/>
      <point x="183" y="-212"/>
      <point x="175" y="-158" type="curve" smooth="yes"/>
      <point x="166" y="-95"/>
      <point x="221" y="9"/>
      <point x="224" y="63" type="curve" smooth="yes"/>
      <point x="227" y="107"/>
      <point x="214" y="144"/>
      <point x="172" y="197" type="curve"/>
      <point x="226" y="236"/>
      <point x="245" y="267"/>
      <point x="252" y="311" type="curve" smooth="yes"/>
      <point x="259" y="364"/>
      <point x="222" y="479"/>
      <point x="251" y="534" type="curve" smooth="yes"/>
      <point x="270" y="570"/>
      <point x="322" y="583"/>
      <point x="367" y="595" type="curve" smooth="yes"/>
      <point x="383" y="599"/>
      <point x="398" y="615"/>
      <point x="394" y="629" type="curve" smooth="yes"/>
      <point x="391" y="644"/>
      <point x="365" y="652"/>
      <point x="343" y="645" type="curve" smooth="yes"/>
      <point x="304" y="634"/>
      <point x="229" y="600"/>
      <point x="205" y="550" type="curve" smooth="yes"/>
      <point x="176" y="492"/>
      <point x="208" y="366"/>
      <point x="199" y="317" type="curve" smooth="yes"/>
      <point x="194" y="288"/>
      <point x="175" y="264"/>
      <point x="143" y="240" type="curve" smooth="yes"/>
      <point x="126" y="228"/>
      <point x="112" y="221"/>
      <point x="111" y="205" type="curve" smooth="yes"/>
      <point x="111" y="188"/>
      <point x="124" y="178"/>
      <point x="136" y="162" type="curve" smooth="yes"/>
      <point x="161" y="129"/>
      <point x="173" y="100"/>
      <point x="171" y="71" type="curve" smooth="yes"/>
      <point x="167" y="14"/>
      <point x="114" y="-94"/>
      <point x="124" y="-160" type="curve" smooth="yes"/>
      <point x="133" y="-217"/>
      <point x="188" y="-267"/>
    </contour>
  </outline>
</glyph>
<glyph name="bar" format="2">
  <advance width="201"/>
  <unicode hex="007C"/>
  <outline>
    <contour>
      <point x="209" y="668" type="line" smooth="yes"/>
      <point x="213" y="690"/>
      <point x="202" y="700"/>
      <point x="189" y="700" type="curve" smooth="yes"/>
      <point x="177" y="700"/>
      <point x="162" y="690"/>
      <point x="159" y="672" type="curve" smooth="yes"/>
      <point x="-8" y="-273" type="line" smooth="yes"/>
      <point x="-11" y="-288"/>
      <point x="-2" y="-300"/>
      <point x="16" y="-300" type="curve" smooth="yes"/>
      <point x="38" y="-300"/>
      <point x="41" y="-285"/>
      <point x="43" y="-275" type="curve" smooth="yes"/>
    </contour>
  </outline>
</glyph>
<glyph name="multiply" format="2">
  <advance width="426"/>
  <unicode hex="00D7"/>
  <outline>
    <contour>
      <point x="105" y="93" type="curve" smooth="yes"/>
      <point x="371" y="327" type="line" smooth="yes"/>
      <point x="385" y="339"/>
      <point x="385" y="352"/>
      <point x="376" y="360" type="curve" smooth="yes"/>
      <point x="367" y="369"/>
      <point x="353" y="370"/>
      <point x="339" y="358" type="curve" smooth="yes"/>
      <point x="71" y="123" type="line" smooth="yes"/>
      <point x="59" y="113"/>
      <point x="59" y="100"/>
      <point x="67" y="91" type="curve" smooth="yes"/>
      <point x="76" y="82"/>
      <point x="89" y="79"/>
    </contour>
    <contour>
      <point x="291" y="93" type="line" smooth="yes"/>
      <point x="302" y="79"/>
      <point x="315" y="80"/>
      <point x="324" y="87" type="curve" smooth="yes"/>
      <point x="335" y="95"/>
      <point x="338" y="107"/>
      <point x="328" y="121" type="curve" smooth="yes"/>
      <point x="156" y="353" type="line" smooth="yes"/>
      <point x="145" y="368"/>
      <point x="131" y="370"/>
      <point x="122" y="363" type="curve" smooth="yes"/>
      <point x="112" y="355"/>
      <point x="109" y="340"/>
      <point x="118" y="327" type="curve" smooth="yes"/>
    </contour>
  </outline>
</glyph>
<glyph name="bullet" format="2">
  <advance width="330"/>
  <unicode hex="2022"/>
  <outline>
    <contour>
      <point x="189" y="278" type="curve" smooth="yes"/>
      <point x="229" y="278"/>
      <point x="266" y="314"/>
      <point x="266" y="355" type="curve" smooth="yes"/>
      <point x="266" y="396"/>
      <point x="230" y="430"/>
      <point x="190" y="430" type="curve" smooth="yes"/>
      <point x="148" y="430"/>
      <point x="116" y="395"/>
      <point x="116" y="355" type="curve" smooth="yes"/>
      <point x="116" y="316"/>
      <point x="147" y="278"/>
    </contour>
  </outline>
</glyph>
<glyph name="ellipsis" format="2">
  <advance width="490"/>
  <unicode hex="2026"/>
  <outline>
    <contour>
      <point x="94" y="-1" type="curve" smooth="yes"/>
      <point x="117" y="-1"/>
      <point x="134" y="17"/>
      <point x="134" y="40" type="curve" smooth="yes"/>
      <point x="134" y="62"/>
      <point x="117" y="79"/>
      <point x="94" y="79" type="curve" smooth="yes"/>
      <point x="71" y="79"/>
      <point x="54" y="62"/>
      <point x="54" y="40" type="curve" smooth="yes"/>
      <point x="54" y="17"/>
      <point x="71" y="-1"/>
    </contour>
    <contour>
      <point x="234" y="-1" type="curve" smooth="yes"/>
      <point x="257" y="-1"/>
      <point x="274" y="17"/>
      <point x="274" y="40" type="curve" smooth="yes"/>
      <point x="274" y="62"/>
      <point x="257" y="79"/>
      <point x="234" y="79" type="curve" smooth="yes"/>
      <point x="211" y="79"/>
      <point x="194" y="62"/>
      <point x="194" y="40" type="curve" smooth="yes"/>
      <point x="194" y="17"/>
      <point x="211" y="-1"/>
    </contour>
    <contour>
      <point x="374" y="-1" type="curve" smooth="yes"/>
      <point x="397" y="-1"/>
      <point x="414" y="17"/>
      <point x="414" y="40" type="curve" smooth="yes"/>
      <point x="414" y="62"/>
      <point x="397" y="79"/>
      <point x="374" y="79" type="curve" smooth="yes"/>
      <point x="351" y="79"/>
      <point x="334" y="62"/>
      <point x="334" y="40" type="curve" smooth="yes"/>
      <point x="334" y="17"/>
      <point x="351" y="-1"/>
    </contour>
  </outline>
</glyph>
